<svg width="24" height="24" viewBox="0 0 24 24" fill="none" xmlns="http://www.w3.org/2000/svg">
<path d="M3.00006 18.75V8.06252C3.00006 6.71986 3.53343 5.43219 4.48283 4.48279C5.43224 3.53338 6.7199 3.00002 8.06256 3.00002H15.9376C16.6024 3.00002 17.2607 3.13096 17.8749 3.38538C18.4891 3.63979 19.0472 4.01269 19.5173 4.48279C19.9874 4.95288 20.3603 5.51097 20.6147 6.12518C20.8691 6.73939 21.0001 7.3977 21.0001 8.06252V15.9375C21.0001 16.6023 20.8691 17.2606 20.6147 17.8748C20.3603 18.4891 19.9874 19.0471 19.5173 19.5172C19.0472 19.9873 18.4891 20.3602 17.8749 20.6147C17.2607 20.8691 16.6024 21 15.9376 21H5.25006C4.65332 21 4.08103 20.763 3.65907 20.341C3.23711 19.919 3.00006 19.3468 3.00006 18.75V18.75Z" stroke="white" stroke-width="2" stroke-linecap="round" stroke-linejoin="round"/>
<path d="M7.98492 11.7408H11.9224C12.5192 11.7408 13.0915 11.9779 13.5134 12.3998C13.9354 12.8218 14.1724 13.3941 14.1724 13.9908C14.1724 14.5875 13.9354 15.1598 13.5134 15.5818C13.0915 16.0037 12.5192 16.2408 11.9224 16.2408H7.98492V8.3658C7.98492 8.06743 8.10345 7.78128 8.31443 7.5703C8.52541 7.35933 8.81156 7.2408 9.10992 7.2408H10.7974C11.3942 7.2408 11.9665 7.47785 12.3884 7.89981C12.8104 8.32177 13.0474 8.89406 13.0474 9.4908C13.0474 10.0875 12.8104 10.6598 12.3884 11.0818C11.9665 11.5037 11.3942 11.7408 10.7974 11.7408H9.10992M16.9849 16.2408H16.9962" stroke="white" stroke-width="2" stroke-linecap="round" stroke-linejoin="round"/>
</svg>
