<svg width="24" height="24" viewBox="0 0 24 24" fill="none" xmlns="http://www.w3.org/2000/svg">
<path d="M20.772 9.156L19.404 5.051C19.2056 4.45348 18.8238 3.9337 18.3131 3.56551C17.8024 3.19732 17.1886 2.99944 16.559 3H7.441C6.81139 2.99944 6.19761 3.19732 5.68688 3.56551C5.17615 3.9337 4.79445 4.45348 4.596 5.051L3.228 9.156C2.86461 9.30848 2.55428 9.56476 2.33584 9.89277C2.11741 10.2208 2.00059 10.6059 2 11V16C2 16.753 2.423 17.402 3.039 17.743C3.026 17.809 3 17.869 3 17.938V20C3 20.2652 3.10536 20.5196 3.29289 20.7071C3.48043 20.8946 3.73478 21 4 21H5C5.26522 21 5.51957 20.8946 5.70711 20.7071C5.89464 20.5196 6 20.2652 6 20V18H18V20C18 20.2652 18.1054 20.5196 18.2929 20.7071C18.4804 20.8946 18.7348 21 19 21H20C20.2652 21 20.5196 20.8946 20.7071 20.7071C20.8946 20.5196 21 20.2652 21 20V17.938C21 17.869 20.974 17.808 20.961 17.743C21.2744 17.5721 21.5362 17.3202 21.7189 17.0136C21.9017 16.707 21.9988 16.357 22 16V11C22 10.171 21.492 9.459 20.772 9.156ZM4 16V11H20L20.002 16H4ZM7.441 5H16.558C16.989 5 17.371 5.274 17.507 5.684L18.613 9H5.387L6.492 5.684C6.55835 5.4848 6.68572 5.31153 6.85605 5.18876C7.02638 5.06599 7.23104 4.99995 7.441 5V5Z" fill="white"/>
<path d="M6.5 16C7.32843 16 8 15.3284 8 14.5C8 13.6716 7.32843 13 6.5 13C5.67157 13 5 13.6716 5 14.5C5 15.3284 5.67157 16 6.5 16Z" fill="white"/>
<path d="M17.5 16C18.3284 16 19 15.3284 19 14.5C19 13.6716 18.3284 13 17.5 13C16.6716 13 16 13.6716 16 14.5C16 15.3284 16.6716 16 17.5 16Z" fill="white"/>
</svg>
