<svg width="24" height="24" viewBox="0 0 24 24" fill="none" xmlns="http://www.w3.org/2000/svg">
<path d="M15.556 7.64024C15.556 7.54033 15.4742 7.45858 15.3743 7.45858H14.1368C14.0686 7.45858 14.0051 7.49719 13.9755 7.5585L12.0522 11.3915H11.9773L10.054 7.5585C10.039 7.52861 10.0159 7.50346 9.98748 7.48583C9.95904 7.4682 9.92627 7.45877 9.8928 7.45858H8.62801C8.59849 7.45858 8.56897 7.4654 8.54173 7.48129C8.45317 7.52898 8.42138 7.64024 8.46906 7.72653L10.8283 12.0772H9.53403C9.43412 12.0772 9.35237 12.159 9.35237 12.2589V12.8742C9.35237 12.9741 9.43412 13.0559 9.53403 13.0559H11.2598V13.9415H9.53403C9.43412 13.9415 9.35237 14.0232 9.35237 14.1231V14.7385C9.35237 14.8384 9.43412 14.9201 9.53403 14.9201H11.2598V16.3598C11.2598 16.4597 11.3415 16.5414 11.4414 16.5414H12.5745C12.6744 16.5414 12.7562 16.4597 12.7562 16.3598V14.9179H14.4887C14.5886 14.9179 14.6704 14.8361 14.6704 14.7362V14.1209C14.6704 14.0209 14.5886 13.9392 14.4887 13.9392H12.7562V13.0536H14.4887C14.5886 13.0536 14.6704 12.9719 14.6704 12.872V12.2566C14.6704 12.1567 14.5886 12.0749 14.4887 12.0749H13.1808L15.5355 7.72426C15.5469 7.69928 15.556 7.66976 15.556 7.64024ZM3.95943 11.8229C4.00208 9.75339 4.84435 7.78077 6.30962 6.31869C7.0476 5.58071 7.90593 4.9994 8.8619 4.59522C9.85193 4.17741 10.9033 3.96396 11.9864 3.96396C13.0718 3.96396 14.1231 4.17513 15.1109 4.59522C16.0669 4.9994 16.9252 5.58071 17.6632 6.31869C17.8902 6.54576 18.1014 6.78418 18.2967 7.03169L17.1613 7.91954C17.1343 7.94046 17.1137 7.96859 17.1019 8.0007C17.0902 8.0328 17.0877 8.06758 17.0948 8.10103C17.1019 8.13447 17.1183 8.16523 17.1422 8.18976C17.166 8.2143 17.1962 8.23161 17.2295 8.23971L20.7899 9.10939C20.9035 9.13664 21.0147 9.05035 21.0147 8.93455L21.0329 5.26735C21.0329 5.11521 20.8581 5.02892 20.74 5.12429L19.6546 5.97354C17.8744 3.69601 15.1018 2.23595 11.9887 2.23595C6.66385 2.23595 2.3336 6.50716 2.23596 11.8138C2.23535 11.838 2.2396 11.8622 2.24846 11.8847C2.25732 11.9073 2.2706 11.9279 2.28753 11.9452C2.30446 11.9626 2.32469 11.9763 2.34703 11.9858C2.36937 11.9952 2.39337 12 2.41761 12H3.78004C3.87768 12 3.95716 11.9205 3.95943 11.8229ZM21.5824 12H20.22C20.1224 12 20.0406 12.0795 20.0383 12.1771C19.9957 14.2466 19.1534 16.2193 17.6882 17.6813C16.957 18.4156 16.0902 19.0009 15.1359 19.4048C14.1458 19.8226 13.0945 20.0361 12.0114 20.0361C10.9282 20.0361 9.87463 19.8249 8.88687 19.4048C7.93259 19.0009 7.0658 18.4156 6.33459 17.6813C6.10752 17.4543 5.89635 17.2158 5.70106 16.9683L6.83415 16.0805C6.8612 16.0596 6.88179 16.0314 6.89356 15.9993C6.90533 15.9672 6.9078 15.9324 6.90068 15.899C6.89356 15.8655 6.87715 15.8348 6.85333 15.8103C6.82951 15.7857 6.79925 15.7684 6.76603 15.7603L3.20555 14.8906C3.09202 14.8634 2.98075 14.9497 2.98075 15.0655L2.96259 18.7372C2.96259 18.8894 3.13743 18.9756 3.25551 18.8803L4.34091 18.031C6.12569 20.304 8.89823 21.7641 12.0114 21.7641C17.3362 21.7641 21.6664 17.4929 21.7641 12.1862C21.7647 12.162 21.7604 12.1379 21.7516 12.1153C21.7427 12.0927 21.7294 12.0722 21.7125 12.0548C21.6956 12.0375 21.6754 12.0237 21.653 12.0143C21.6307 12.0048 21.6067 12 21.5824 12Z" fill="white"/>
</svg>
